HIERARCHY
ROOT Hips
{
	OFFSET -14.64140 90.27770 -84.91600
	CHANNELS 6 Xposition Yposition Zposition Zrotation Xrotation Yrotation
	JOINT Spine
	{
		OFFSET 0.00000 13.20850 -1.60436
		CHANNELS 3 Zrotation Xrotation Yrotation
		JOINT Spine1
		{
			OFFSET 0.00000 8.61716 0.00000
			CHANNELS 3 Zrotation Xrotation Yrotation
			JOINT Spine2
			{
				OFFSET 0.00000 8.61717 0.00000
				CHANNELS 3 Zrotation Xrotation Yrotation
				JOINT Spine3
				{
					OFFSET 0.00000 8.61717 0.00000
					CHANNELS 3 Zrotation Xrotation Yrotation
					JOINT Neck
					{
						OFFSET 0.00000 11.07920 1.10792
						CHANNELS 3 Zrotation Xrotation Yrotation
						JOINT Neck1
						{
							OFFSET 0.00000 7.08032 0.00000
							CHANNELS 3 Zrotation Xrotation Yrotation
							JOINT Head
							{
								OFFSET 0.00000 7.08031 0.00000
								CHANNELS 3 Zrotation Xrotation Yrotation
								End site
								{
									OFFSET 0.00000 0.00000 0.00000
								}
							}
						}
					}
					JOINT RightShoulder
					{
						OFFSET -0.01000 7.91373 5.19711
						CHANNELS 3 Zrotation Xrotation Yrotation
						JOINT RightArm
						{
							OFFSET -18.41580 0.00000 0.00000
							CHANNELS 3 Zrotation Xrotation Yrotation
							JOINT RightForeArm
							{
								OFFSET -29.11090 0.00000 0.00000
								CHANNELS 3 Zrotation Xrotation Yrotation
								JOINT RightHand
								{
									OFFSET -24.65040 0.00000 0.00000
									CHANNELS 3 Zrotation Xrotation Yrotation
									JOINT RightHandThumb1
									{
										OFFSET -5.35114 -0.85590 3.97906
										CHANNELS 3 Zrotation Xrotation Yrotation
										JOINT RightHandThumb2
										{
											OFFSET -4.52789 0.00000 0.00000
											CHANNELS 3 Zrotation Xrotation Yrotation
											JOINT RightHandThumb3
											{
												OFFSET -2.46976 0.00000 0.00000
												CHANNELS 3 Zrotation Xrotation Yrotation
												End site
												{
													OFFSET 0.00000 0.00000 0.00000
												}
											}
										}
									}
									JOINT RightHandIndex1
									{
										OFFSET -14.26970 0.00000 2.88139
										CHANNELS 3 Zrotation Xrotation Yrotation
										JOINT RightHandIndex2
										{
											OFFSET -5.48836 0.00000 0.00000
											CHANNELS 3 Zrotation Xrotation Yrotation
											JOINT RightHandIndex3
											{
												OFFSET -3.01859 0.00000 0.00000
												CHANNELS 3 Zrotation Xrotation Yrotation
												End site
												{
													OFFSET 0.00000 0.00000 0.00000
												}
											}
										}
									}
									JOINT RightHandMiddle1
									{
										OFFSET -14.26970 0.00000 -0.09147
										CHANNELS 3 Zrotation Xrotation Yrotation
										JOINT RightHandMiddle2
										{
											OFFSET -6.17441 0.00000 0.00000
											CHANNELS 3 Zrotation Xrotation Yrotation
											JOINT RightHandMiddle3
											{
												OFFSET -3.56743 0.00000 0.00000
												CHANNELS 3 Zrotation Xrotation Yrotation
												End site
												{
													OFFSET 0.00000 0.00000 0.00000
												}
											}
										}
									}
									JOINT RightHandRing1
									{
										OFFSET -12.69180 0.00000 -3.06433
										CHANNELS 3 Zrotation Xrotation Yrotation
										JOINT RightHandRing2
										{
											OFFSET -5.62556 0.00000 0.00000
											CHANNELS 3 Zrotation Xrotation Yrotation
											JOINT RightHandRing3
											{
												OFFSET -3.56744 0.00000 0.00000
												CHANNELS 3 Zrotation Xrotation Yrotation
												End site
												{
													OFFSET 0.00000 0.00000 0.00000
												}
											}
										}
									}
									JOINT RightHandPinky1
									{
										OFFSET -11.11390 0.00000 -6.03719
										CHANNELS 3 Zrotation Xrotation Yrotation
										JOINT RightHandPinky2
										{
											OFFSET -4.52789 0.00000 0.00000
											CHANNELS 3 Zrotation Xrotation Yrotation
											JOINT RightHandPinky3
											{
												OFFSET -2.46976 0.00000 0.00000
												CHANNELS 3 Zrotation Xrotation Yrotation
												End site
												{
													OFFSET 0.00000 0.00000 0.00000
												}
											}
										}
									}
								}
							}
						}
					}
					JOINT LeftShoulder
					{
						OFFSET 0.01000 7.91373 5.19711
						CHANNELS 3 Zrotation Xrotation Yrotation
						JOINT LeftArm
						{
							OFFSET 18.41580 0.00000 0.00000
							CHANNELS 3 Zrotation Xrotation Yrotation
							JOINT LeftForeArm
							{
								OFFSET 29.11090 0.00000 0.00000
								CHANNELS 3 Zrotation Xrotation Yrotation
								JOINT LeftHand
								{
									OFFSET 24.65040 0.00000 0.00000
									CHANNELS 3 Zrotation Xrotation Yrotation
									JOINT LeftHandThumb1
									{
										OFFSET 5.35114 -0.85590 3.97906
										CHANNELS 3 Zrotation Xrotation Yrotation
										JOINT LeftHandThumb2
										{
											OFFSET 4.52789 0.00000 0.00000
											CHANNELS 3 Zrotation Xrotation Yrotation
											JOINT LeftHandThumb3
											{
												OFFSET 2.46977 0.00000 0.00000
												CHANNELS 3 Zrotation Xrotation Yrotation
												End site
												{
													OFFSET 0.00000 0.00000 0.00000
												}
											}
										}
									}
									JOINT LeftHandIndex1
									{
										OFFSET 14.26970 0.00000 2.88139
										CHANNELS 3 Zrotation Xrotation Yrotation
										JOINT LeftHandIndex2
										{
											OFFSET 5.48836 0.00000 0.00000
											CHANNELS 3 Zrotation Xrotation Yrotation
											JOINT LeftHandIndex3
											{
												OFFSET 3.01859 0.00000 0.00000
												CHANNELS 3 Zrotation Xrotation Yrotation
												End site
												{
													OFFSET 0.00000 0.00000 0.00000
												}
											}
										}
									}
									JOINT LeftHandMiddle1
									{
										OFFSET 14.26970 0.00000 -0.09147
										CHANNELS 3 Zrotation Xrotation Yrotation
										JOINT LeftHandMiddle2
										{
											OFFSET 6.17440 0.00000 0.00000
											CHANNELS 3 Zrotation Xrotation Yrotation
											JOINT LeftHandMiddle3
											{
												OFFSET 3.56744 0.00000 0.00000
												CHANNELS 3 Zrotation Xrotation Yrotation
												End site
												{
													OFFSET 0.00000 0.00000 0.00000
												}
											}
										}
									}
									JOINT LeftHandRing1
									{
										OFFSET 12.69180 0.00000 -3.06433
										CHANNELS 3 Zrotation Xrotation Yrotation
										JOINT LeftHandRing2
										{
											OFFSET 5.62556 0.00000 0.00000
											CHANNELS 3 Zrotation Xrotation Yrotation
											JOINT LeftHandRing3
											{
												OFFSET 3.56744 0.00000 0.00000
												CHANNELS 3 Zrotation Xrotation Yrotation
												End site
												{
													OFFSET 0.00000 0.00000 0.00000
												}
											}
										}
									}
									JOINT LeftHandPinky1
									{
										OFFSET 11.11390 0.00000 -6.03719
										CHANNELS 3 Zrotation Xrotation Yrotation
										JOINT LeftHandPinky2
										{
											OFFSET 4.52789 0.00000 0.00000
											CHANNELS 3 Zrotation Xrotation Yrotation
											JOINT LeftHandPinky3
											{
												OFFSET 2.46976 0.00000 0.00000
												CHANNELS 3 Zrotation Xrotation Yrotation
												End site
												{
													OFFSET 0.00000 0.00000 0.00000
												}
											}
										}
									}
								}
							}
						}
					}
					JOINT pCube4
					{
						OFFSET 0.00000 10.91090 1.10792
						CHANNELS 3 Zrotation Xrotation Yrotation
						End site
						{
							OFFSET 0.00000 0.00000 0.00000
						}
					}
				}
			}
		}
	}
	JOINT RightUpLeg
	{
		OFFSET -9.98441 0.00000 0.00000
		CHANNELS 3 Zrotation Xrotation Yrotation
		JOINT RightLeg
		{
			OFFSET 0.00000 -42.11790 0.00000
			CHANNELS 3 Zrotation Xrotation Yrotation
			JOINT RightFoot
			{
				OFFSET 0.00000 -45.00020 -0.00001
				CHANNELS 3 Zrotation Xrotation Yrotation
				JOINT RightForeFoot
				{
					OFFSET 0.00000 -3.74820 0.00000
					CHANNELS 3 Zrotation Xrotation Yrotation
					JOINT RightToeBase
					{
						OFFSET 0.00000 0.06325 14.43120
						CHANNELS 3 Zrotation Xrotation Yrotation
						End site
						{
							OFFSET 0.00000 0.00000 0.00000
						}
					}
				}
			}
		}
	}
	JOINT LeftUpLeg
	{
		OFFSET 9.98441 0.00000 0.00000
		CHANNELS 3 Zrotation Xrotation Yrotation
		JOINT LeftLeg
		{
			OFFSET 0.00000 -42.11800 0.00000
			CHANNELS 3 Zrotation Xrotation Yrotation
			JOINT LeftFoot
			{
				OFFSET 0.00000 -45.00070 0.00000
				CHANNELS 3 Zrotation Xrotation Yrotation
				JOINT LeftForeFoot
				{
					OFFSET 0.00000 -3.74824 0.00000
					CHANNELS 3 Zrotation Xrotation Yrotation
					JOINT LeftToeBase
					{
						OFFSET 0.00000 0.06325 14.43110
						CHANNELS 3 Zrotation Xrotation Yrotation
						End site
						{
							OFFSET 0.00000 0.00000 0.00000
						}
					}
				}
			}
		}
	}
}
MOTION
Frames: 4
Frame Time: 0.050000
-0.04250523293051864 -0.04119367224672449 -0.016487376163183572 0.03228146313354024 0.009735541567734585 -0.030746555854756347 5.86973333100223 3.083458046545598 -2.3865457535161188 -0.69913200082104 3.3914044104569543 0.3703124997329684 -0.5546256137601995 -1.0340291142033244 0.6334539694625784 -0.2663769154053499 -0.490604430413325 -0.3315204650759827 0.207020127502263 11.26606974922114 -1.6732052747546218 0.4791429161806127 -0.6094075020752852 -3.2307840969508046 0.999924661403943 -16.949922038224734 -0.29751649249221085 -9.237888739058638 3.358817020155276 -18.812218040687956 80.36696252610217 1.5548901963997754 -3.471282775958669 0.5770733878061348 7.720354964741346 56.20832212308893 17.624627812876774 -0.3436809799232499 -2.87522135104891 4.558980844431883 -0.1592282364395076 -1.6378338159814514 -0.01935941149801435 -0.04989095435848915 -56.241791213279015 0.013282454717938963 -0.017221863935362586 -56.2529905576971 -38.74704616778371 0.0009823579090136913 -0.021510417703067476 -0.018341597347888917 -0.03572816312179056 0.044992139823112565 0.00011932740592818541 0.02078606545298053 -0.021074010771121716 -36.6723757687274 0.025760500992549503 0.010075521790263234 0.02201035631807103 0.04276594568925882 -0.001805373126893549 0.025825548500185175 0.00013880264421695977 -0.0018350934446540819 -19.765704220430017 -0.03323795367708914 0.01584544587399096 0.008280666202141957 -0.014362924399700557 -0.011623424392406342 -0.02749491523820415 -0.03473611732492231 -0.019861375957855858 24.072948234930106 -0.040682117261149814 -0.027288355058564272 28.87057887823895 -0.03147826529737256 0.030036728915926056 28.836038984961476 0.002466433483378605 -0.010633998674680439 8.65443527715207 2.217147520555203 15.446997620278895 -75.67478824653747 15.349794812686001 -5.580652852550192 3.145511882142025 8.24664257285121 -44.541435619024526 -20.057480023506972 -0.25338621097926556 1.0029678193108102 -0.44783036421499467 0.07052559408077297 -8.075149082590233 -0.04167969563196217 -0.008419763964775232 44.58938113477945 0.001239542091682142 -0.007079824637617364 44.56971504612599 12.450990617710334 -0.04607208763993179 0.03631144443829743 0.029845279572524308 0.023569535333238585 -0.02491240894064785 -0.044304200238467394 -0.01964819335345038 -0.014051285941928284 11.083781464846592 0.00680299398540159 -0.03127807978983624 0.026534117418473925 0.03938637059440321 -0.005465559341446238 0.007655505705910429 0.029614504620923566 0.016429349727311346 4.732130672412323 -0.0004435975306877266 -0.01739434013217067 0.02106284915316636 -0.01391951653711692 -0.023551362342994132 -0.04279085906170743 0.010828577453997526 -0.01205510329806247 -5.59747785142508 0.04601966543606554 -0.02774081060205141 -6.706710733838337 -0.03248111369329395 -0.047973327973215685 -6.752203061199814 0.039195274132157745 0.006128605622822388 -0.00562799207708639 0.009134421200705222 0.010367224462972618 8.058197162380377 3.4646833820703478 -19.19654903263503 -0.005869124225728281 10.387548879447055 0.03002405161888114 -5.603429482556515 -15.69319852295458 3.1737301402812497 0.028148055209878786 -0.008232930512098837 0.04358422227465326 0.01644683017798453 4.725131009514866 0.019157894085217484 12.455456328648795 -8.228154480230295 6.885526724527888 0.03719643096135233 46.34751143199164 -0.014399911452196587 -4.353019311048267 -14.75316340497337 -3.864568928199071 -0.04495874533685529 0.02160160520637332 0.011522003986603212 0.02423870253106116 -10.781854934553479 0.012161988773277963 
-0.004803678137758505 -0.014459118603836398 0.03541109968922057 -0.018633853298002667 0.0038686814983893204 0.008087425813375215 5.797955650808378 3.0072171544319324 -2.3278087553784252 -0.763772096207633 3.487367834833539 0.36607625563703916 -0.5154727331109643 -1.0700134618793629 0.6736134316608321 -0.26826137841824127 -0.4998777690606969 -0.25578939789052946 0.24724923451301783 11.503499579913376 -1.7460905574598449 0.4073509632493013 -0.5981570345742391 -3.362106720979936 1.0147711476116326 -16.956821646232097 -0.3147617492971602 -9.5144370135088 3.36436330644268 -19.002833221277886 79.33045115305204 1.2091869071366534 -3.429891172449397 1.61649940170906 7.267949722575022 59.11015099002501 17.309033355908735 -0.347501482674488 -2.9683405404529553 4.568994357262776 -0.15081660431106758 -1.620302841714997 -0.044347638336455025 0.036667732586085904 -56.21727792750598 -0.03229468714284861 -0.021327761605557966 -56.1984397258213 -38.72329707033038 0.0003994174998299887 -0.03083682811189125 0.014993292852753094 -0.01505874014783275 -0.022753414545679036 -0.021566579131706662 -0.03916193248324114 0.03741465288823948 -36.719487115777625 0.029797554522666192 -0.026942401955469708 -0.025836233897969234 -0.042675916503170944 -0.0009900495973526352 -0.011608063018309644 -0.049203328853536975 0.010914244123119496 -19.741677727262257 0.007704338441944719 0.003581282989225657 -0.030918942088929813 -0.01223963225763064 0.025043790530166744 -0.01796877979155177 -0.024349767570629833 0.04677348503225397 24.018597378541273 -0.012526970862266961 0.035828923997538197 28.877199923008803 -0.012825869960911682 0.035914780248541896 28.882157419526678 -0.049565424795625854 -0.01696883602971215 8.85621572682144 2.2469822135224375 15.611927086601147 -75.03918819787195 14.32163976941323 -5.640084916984227 2.376404810454365 8.172872427518618 -45.501338636821394 -19.878883199959137 -0.2949760191875906 0.9575196352759159 -0.4344333044320935 0.09809283451200405 -8.116664769231079 -0.0033793977556348448 0.0493618689798098 44.56655171605775 -0.038094901632227805 0.045558118933650735 44.53273991384418 12.459541804940827 -0.02354673973594679 0.028532983271830854 -0.005052365090041902 -0.037509102318136874 0.03355619357143564 -0.008990368783330671 0.022095798890828786 -0.013155588362429168 11.11054110531937 0.02940146946864216 -0.02439512112432689 -0.043780682155662144 -0.0054954864899351055 0.011962942609302543 -0.03485930285361256 -0.044539206735608926 0.033533218337683336 4.806267354831779 0.02120080673108494 0.0430372927882605 -0.019962824913039336 -0.029666763901754052 0.04601070738509308 -0.029546459820114307 0.037384844415539374 0.011050673664299834 -5.624303438486442 -0.04157314489800633 0.0012607292849312862 -6.704770492829283 0.02750783729680444 0.03398199112965131 -6.713523398887327 -0.010726155117479319 -0.049305384347985245 -0.029381473015314463 -0.018987756756280744 -0.006803923848496307 8.013047518430382 3.4527183842160483 -19.244670729383536 -0.027773894300386442 10.436874427766204 -0.008102331283165818 -5.619212351811155 -15.651175679412306 3.2036385949644735 0.026104724743023913 -0.030192577016016253 -0.009718205953669708 0.01464490669739005 4.7368327836980235 0.028179632439352415 12.449715758787915 -8.277536341258605 6.851451851243953 -0.039234185203100354 46.408657515691125 0.03340850138279464 -4.288520626674313 -14.743679930937967 -3.812334179565767 -0.014236489629884308 0.010054450818232611 0.04037659978254099 0.008488396230634208 -10.73667419031491 0.03515602692223321 
0.029399565678864616 0.027936110389972887 0.022423154581423854 -0.009237910525267262 -0.004525368669225309 -0.005039335657046654 5.569598399913914 3.0156442852735883 -2.291125015450363 -0.7745177667148164 3.478129616142843 0.3455407848838826 -0.5474584223598135 -1.1106700228519277 0.7779336157086044 -0.30741783825226027 -0.4679879320642388 -0.3086663732301559 0.1532613354634623 11.711609496762886 -1.7578316708974648 0.4295802467100675 -0.6205578638027006 -3.4059109105861203 1.0437699833085021 -16.917441584363836 -0.30734992135106987 -9.598872060239978 3.37577260601152 -19.06990590464972 78.0491958765168 0.8202908031272039 -2.9179239305868805 3.365889990116888 7.00779129484266 63.875330239786635 17.11779578930458 -0.40149293010356185 -3.3399453012338696 4.561212046764469 -0.13948346046809848 -1.5691028936777252 0.003221103635303007 0.04785570089567062 -56.220398836626266 0.0033691199457602473 0.01650373325185439 -56.274888743043945 -38.73544961490862 -0.01561624496591317 -0.040954777228819704 0.027374891591804267 0.015173444799050818 -0.00863171959646859 -0.01953165821577389 0.023345333065512657 -0.008366522209158787 -36.68468306359115 0.03172005422242549 -0.038515692189480595 -0.004099060835374434 0.020078201737547707 0.016382935518194044 -0.01618927917072363 0.018723820742939976 0.02747052919318181 -19.796167788762435 -0.008590990072328542 0.02441727362830582 0.022491421323982082 -0.021592724341239353 -0.0009445614945005131 0.026899820184770475 0.03177855880479332 -0.0042917937585440075 24.021503477256772 -0.02168703315072928 -0.041101323849562686 28.884302041432594 -0.012976531415855964 -0.015702970422148552 28.911874888867477 -0.01697168080208253 0.04186945935405892 9.023100098231781 2.253713612648317 15.751408794324487 -74.41477407201818 13.652036000766469 -5.700077410514966 1.389525990666065 8.115206793972128 -46.68119294942932 -19.875168135054686 -0.2607937412873816 0.7215962134766539 -0.4820399744200513 0.041819030464363 -8.121304098148626 0.008392171190595687 0.0015180912314479097 44.58078544430862 0.047213184811530494 -0.044751519520533654 44.581203143773664 12.429632866757077 0.00795489198497083 -0.026048205259126742 -0.032122705748931855 0.011649885753170148 0.047071496667593284 -0.020987509258826337 -0.026545398889169368 -0.0068290072461145695 11.104910227216749 0.014610006110534536 0.03788984269024054 -0.042476467513863574 -0.005613517621515438 -0.03501903964571784 -0.024690108276354275 0.007179417588395138 0.006401364203135061 4.747739787678239 0.028547335154236256 -0.005914927127200354 0.013487521608910672 -0.025894772296387994 0.02387181571663567 0.006056193466481881 0.041295562509001564 -0.010228637943734438 -5.627662342628606 0.020231631338583078 -0.010793319283230983 -6.762523402072774 0.014563683642567075 0.028989457794777417 -6.722594684763949 -0.022578965416918687 -0.014260452870824017 0.027316392972759736 0.04135166270578895 0.01966975574163528 8.045730984801144 3.4618370215603758 -19.240768369384188 0.014307319253650159 10.37206067420358 -0.012225799362802103 -5.593710232674297 -15.624491689038463 3.153286149766009 -0.014507034624858903 -0.013478149953933195 -0.01745089650463989 -0.020682132589016623 4.69730536718644 0.016236816232960756 12.492900386492071 -8.285380916040873 6.883950140365708 -0.0062717787266442 46.3411903525421 0.00884805981683676 -4.287039315081805 -14.747924271069689 -3.8294577210837906 -0.01781439205013297 -0.0469667216710685 -0.018453500697986115 0.01499206529351379 -10.746337558634156 -0.022321786036066816 
0.03221947040292331 0.01133594580508611 0.0336172639371704 0.044129262804033745 -0.034722192606465266 -0.014357326308162242 5.306871990927394 3.026301773074586 -2.2550174621231602 -0.75367884347994 3.5260901227079717 0.35384136581435527 -0.6106024251060914 -1.1147826901146844 0.8067448851927891 -0.33125270265833595 -0.47806251675449274 -0.29718777324622003 0.20820795908636633 12.034687477727264 -1.7883710738758336 0.49250612069570054 -0.6155247145184018 -3.5681386731069975 1.1064525986751346 -17.0014161538618 -0.3351346289790053 -9.76655889603661 3.401977489742425 -19.083433056647635 76.89150502642515 0.41640780417396844 -1.9597768278972156 5.149285160348283 6.826877064525368 68.73122623014422 17.304623792685753 -0.43918299145806694 -3.841945259223395 4.5473926514195195 -0.14491888822221338 -1.6127557478121168 0.025302825358264204 -0.003897160853703248 -56.22917866717197 -0.011226967418882109 0.03539481876369538 -56.19844881051245 -38.80020349490729 0.016757892754877934 -0.003917741690477693 0.028762462627197193 0.00033685906292787847 0.011403133507985629 -0.020008066007947457 -0.03670559854167515 0.030405459484676736 -36.69462255319895 -0.0312788401517528 0.0035358314382638724 0.02470775038154562 -0.04297518081772877 0.0042121476536661 0.031091813034892685 -0.025027234037344488 -0.022619184406841103 -19.713373123964946 0.04727083696946402 -0.040349472681637195 0.03951541505011549 -0.049855502259526854 -0.0031469491614913706 0.02731797085169721 -0.03535468156576615 -0.028718905302319114 24.04389253200342 0.0010624417289021525 -0.012540128103402444 28.85685413585115 -0.008797231615328086 0.03256979899990616 28.818682045806792 -0.022379415448565237 -0.029789987306754685 9.010924374197858 2.2610154856698697 15.868126619400027 -74.01435359937308 13.218419382734947 -5.830589903155796 0.39179946805928795 8.283494202113136 -47.49954300162698 -19.959840398801838 -0.0170783303885278 0.4768974632030576 -0.46214575007847475 0.06466083010311723 -8.137708081812404 0.0035640260637452696 -0.03352294847052803 44.55435022944868 -0.003500785742229727 0.005873574484189311 44.56440999070374 12.480541235984367 -0.011245922165501463 -0.020973882766686033 -0.025361952795130375 0.006700675927860686 -0.021219295510904033 0.024050275385807573 -0.03418788992646927 0.04846920145887632 11.086574441791608 0.0009108041517037036 0.018646529502472454 0.02312441662046001 0.034079546136507245 0.007258775064658782 0.02704562493201214 -0.0016811006997674036 0.011125582623789243 4.735894486438922 0.002599949100207475 -0.025412011287060016 -0.02489123119385763 -0.004746037517474847 -0.029849024654516897 0.010706502005982246 0.035716133581808134 0.036035986597456306 -5.615951800714983 -0.03519911439921396 -0.049482047032780196 -6.733906250854051 -0.0318341366506855 -0.0015979187901023597 -6.712675209656255 0.021712503838003192 -0.04035084194693789 -0.003023859570668753 -0.01866890153904733 0.01154303793171197 7.996782840953383 3.48169106240432 -19.241624324635648 0.04182066212667782 10.356964494414427 0.03439131613101803 -5.665513492442138 -15.639486682742973 3.235757055119954 0.026308667530259594 -0.02086908675948715 -0.047138770511615455 0.005419366973426613 4.705583790963187 -0.047948561319012616 12.412054936558329 -8.198819025495116 6.887982199039152 0.026772524927678492 46.336529863480564 0.04177098130885283 -4.365069215802272 -14.7923493508576 -3.843647823474691 -0.0027768630226720084 0.00419836210462533 -0.04733252990869007 -0.02808963455281053 -10.790042596660806 0.025640417924474995 
